<?xml version="1.0" encoding="utf-8" standalone="yes"?> <svg width="4000" height="4000" viewBox="-3 -3 31 31" xmlns="http://www.w3.org/2000/svg" shape-rendering="geometricPrecision" id="qr code"><rect id="qr background" fill-opacity="1" fill="rgba(255, 255, 255, 0)" x="-3" y="-3" width="31" height="31" ry="1.3499999999999999"></rect><path fill-opacity="1" fill="#fccebe" id="qr dark pixels" fill-rule="evenodd" d="M 8 0.4a 0.4,0.4 0 0 1 0.4,-0.4L 8.6 0a 0.4,0.4 0 0 1 0.4,0.4L 9 0.6a 0.4,0.4 0 0 0 0.4,0.4L 10.6 1a 0.4,0.4 0 0 1 0.4,0.4L 11 1.6a 0.4,0.4 0 0 0 0.4,0.4L 11.6 2a 0.4,0.4 0 0 0 0.4,-0.4L 12 1.4a 0.4,0.4 0 0 0 -0.4,-0.4L 11.4 1a 0.4,0.4 0 0 1 -0.4,-0.4L 11 0.4a 0.4,0.4 0 0 1 0.4,-0.4L 12.6 0a 0.4,0.4 0 0 1 0.4,0.4L 13 0.6a 0.4,0.4 0 0 0 0.4,0.4L 13.6 1a 0.4,0.4 0 0 0 0.4,-0.4L 14 0.4a 0.4,0.4 0 0 1 0.4,-0.4L 14.6 0a 0.4,0.4 0 0 1 0.4,0.4L 15 7.6a 0.4,0.4 0 0 1 -0.4,0.4L 14.4 8a 0.4,0.4 0 0 1 -0.4,-0.4L 14 6.4a 0.4,0.4 0 0 0 -0.4,-0.4L 13.4 6a 0.4,0.4 0 0 1 -0.4,-0.4L 13 5.4a 0.4,0.4 0 0 1 0.4,-0.4L 13.6 5a 0.4,0.4 0 0 0 0.4,-0.4L 14 4.4a 0.4,0.4 0 0 0 -0.4,-0.4L 13.4 4a 0.4,0.4 0 0 1 -0.4,-0.4L 13 3.4a 0.4,0.4 0 0 0 -0.4,-0.4L 11.4 3a 0.4,0.4 0 0 0 -0.4,0.4L 11 3.6a 0.4,0.4 0 0 0 0.4,0.4L 11.6 4a 0.4,0.4 0 0 1 0.4,0.4L 12 5.6a 0.4,0.4 0 0 1 -0.4,0.4L 11.4 6a 0.4,0.4 0 0 1 -0.4,-0.4L 11 5.4a 0.4,0.4 0 0 0 -0.4,-0.4L 9.4 5a 0.4,0.4 0 0 0 -0.4,0.4L 9 7.6a 0.4,0.4 0 0 0 0.4,0.4L 9.6 8a 0.4,0.4 0 0 0 0.4,-0.4L 10 6.4a 0.4,0.4 0 0 1 0.4,-0.4L 10.6 6a 0.4,0.4 0 0 1 0.4,0.4L 11 6.6a 0.4,0.4 0 0 0 0.4,0.4L 11.6 7a 0.4,0.4 0 0 0 0.4,-0.4L 12 6.4a 0.4,0.4 0 0 1 0.4,-0.4L 12.6 6a 0.4,0.4 0 0 1 0.4,0.4L 13 7.6a 0.4,0.4 0 0 1 -0.4,0.4L 11.4 8a 0.4,0.4 0 0 0 -0.4,0.4L 11 9.6a 0.4,0.4 0 0 1 -0.4,0.4L 9.4 10a 0.4,0.4 0 0 1 -0.4,-0.4L 9 9.4a 0.4,0.4 0 0 0 -0.4,-0.4L 8.4 9a 0.4,0.4 0 0 1 -0.4,-0.4L 8 4.4a 0.4,0.4 0 0 1 0.4,-0.4L 9.6 4a 0.4,0.4 0 0 0 0.4,-0.4L 10 2.4a 0.4,0.4 0 0 0 -0.4,-0.4L 8.4 2a 0.4,0.4 0 0 1 -0.4,-0.4z M 16 0.4a 0.4,0.4 0 0 1 0.4,-0.4L 16.6 0a 0.4,0.4 0 0 1 0.4,0.4L 17 2.6a 0.4,0.4 0 0 1 -0.4,0.4L 16.4 3a 0.4,0.4 0 0 1 -0.4,-0.4z M 16 5.4a 0.4,0.4 0 0 1 0.4,-0.4L 16.6 5a 0.4,0.4 0 0 1 0.4,0.4L 17 7.6a 0.4,0.4 0 0 0 0.4,0.4L 20.6 8a 0.4,0.4 0 0 1 0.4,0.4L 21 8.6a 0.4,0.4 0 0 1 -0.4,0.4L 20.4 9a 0.4,0.4 0 0 0 -0.4,0.4L 20 9.6a 0.4,0.4 0 0 1 -0.4,0.4L 19.4 10a 0.4,0.4 0 0 0 -0.4,0.4L 19 10.6a 0.4,0.4 0 0 1 -0.4,0.4L 18.4 11a 0.4,0.4 0 0 1 -0.4,-0.4L 18 10.4a 0.4,0.4 0 0 0 -0.4,-0.4L 17.4 10a 0.4,0.4 0 0 1 -0.4,-0.4L 17 9.4a 0.4,0.4 0 0 0 -0.4,-0.4L 16.4 9a 0.4,0.4 0 0 1 -0.4,-0.4z M 0 8.4a 0.4,0.4 0 0 1 0.4,-0.4L 2.6 8a 0.4,0.4 0 0 1 0.4,0.4L 3 9.6a 0.4,0.4 0 0 0 0.4,0.4L 3.6 10a 0.4,0.4 0 0 1 0.4,0.4L 4 10.6a 0.4,0.4 0 0 1 -0.4,0.4L 3.4 11a 0.4,0.4 0 0 0 -0.4,0.4L 3 11.6a 0.4,0.4 0 0 0 0.4,0.4L 3.6 12a 0.4,0.4 0 0 1 0.4,0.4L 4 12.6a 0.4,0.4 0 0 1 -0.4,0.4L 3.4 13a 0.4,0.4 0 0 0 -0.4,0.4L 3 13.6a 0.4,0.4 0 0 1 -0.4,0.4L 2.4 14a 0.4,0.4 0 0 0 -0.4,0.4L 2 14.6a 0.4,0.4 0 0 1 -0.4,0.4L 0.4 15a 0.4,0.4 0 0 1 -0.4,-0.4L 0 14.4a 0.4,0.4 0 0 1 0.4,-0.4L 0.6 14a 0.4,0.4 0 0 0 0.4,-0.4L 1 13.4a 0.4,0.4 0 0 1 0.4,-0.4L 1.6 13a 0.4,0.4 0 0 0 0.4,-0.4L 2 9.4a 0.4,0.4 0 0 0 -0.4,-0.4L 1.4 9a 0.4,0.4 0 0 0 -0.4,0.4L 1 11.6a 0.4,0.4 0 0 1 -0.4,0.4L 0.4 12a 0.4,0.4 0 0 1 -0.4,-0.4z M 5 8.4a 0.4,0.4 0 0 1 0.4,-0.4L 6.6 8a 0.4,0.4 0 0 1 0.4,0.4L 7 8.6a 0.4,0.4 0 0 1 -0.4,0.4L 6.4 9a 0.4,0.4 0 0 0 -0.4,0.4L 6 9.6a 0.4,0.4 0 0 0 0.4,0.4L 6.6 10a 0.4,0.4 0 0 1 0.4,0.4L 7 10.6a 0.4,0.4 0 0 1 -0.4,0.4L 5.4 11a 0.4,0.4 0 0 1 -0.4,-0.4L 5 10.4a 0.4,0.4 0 0 0 -0.4,-0.4L 4.4 10a 0.4,0.4 0 0 1 -0.4,-0.4L 4 9.4a 0.4,0.4 0 0 1 0.4,-0.4L 4.6 9a 0.4,0.4 0 0 0 0.4,-0.4z M 23 8.4a 0.4,0.4 0 0 1 0.4,-0.4L 24.6 8a 0.4,0.4 0 0 1 0.4,0.4L 25 10.6a 0.4,0.4 0 0 1 -0.4,0.4L 24.4 11a 0.4,0.4 0 0 1 -0.4,-0.4L 24 10.4a 0.4,0.4 0 0 0 -0.4,-0.4L 23.4 10a 0.4,0.4 0 0 1 -0.4,-0.4z M 7 9.4a 0.4,0.4 0 0 1 0.4,-0.4L 7.6 9a 0.4,0.4 0 0 1 0.4,0.4L 8 9.6a 0.4,0.4 0 0 1 -0.4,0.4L 7.4 10a 0.4,0.4 0 0 1 -0.4,-0.4z M 13 9.4a 0.4,0.4 0 0 1 0.4,-0.4L 13.6 9a 0.4,0.4 0 0 1 0.4,0.4L 14 9.6a 0.4,0.4 0 0 1 -0.4,0.4L 13.4 10a 0.4,0.4 0 0 1 -0.4,-0.4z M 15 9.4a 0.4,0.4 0 0 1 0.4,-0.4L 15.6 9a 0.4,0.4 0 0 1 0.4,0.4L 16 11.6a 0.4,0.4 0 0 0 0.4,0.4L 16.6 12a 0.4,0.4 0 0 1 0.4,0.4L 17 13.6a 0.4,0.4 0 0 0 0.4,0.4L 17.6 14a 0.4,0.4 0 0 1 0.4,0.4L 18 15.6a 0.4,0.4 0 0 1 -0.4,0.4L 15.4 16a 0.4,0.4 0 0 0 -0.4,0.4L 15 16.6a 0.4,0.4 0 0 1 -0.4,0.4L 14.4 17a 0.4,0.4 0 0 0 -0.4,0.4L 14 17.6a 0.4,0.4 0 0 1 -0.4,0.4L 13.4 18a 0.4,0.4 0 0 1 -0.4,-0.4L 13 16.4a 0.4,0.4 0 0 1 0.4,-0.4L 13.6 16a 0.4,0.4 0 0 0 0.4,-0.4L 14 15.4a 0.4,0.4 0 0 1 0.4,-0.4L 14.6 15a 0.4,0.4 0 0 0 0.4,-0.4L 15 12.4a 0.4,0.4 0 0 0 -0.4,-0.4L 14.4 12a 0.4,0.4 0 0 1 -0.4,-0.4L 14 11.4a 0.4,0.4 0 0 1 0.4,-0.4L 14.6 11a 0.4,0.4 0 0 0 0.4,-0.4z M 21 9.4a 0.4,0.4 0 0 1 0.4,-0.4L 21.6 9a 0.4,0.4 0 0 1 0.4,0.4L 22 9.6a 0.4,0.4 0 0 0 0.4,0.4L 22.6 10a 0.4,0.4 0 0 1 0.4,0.4L 23 10.6a 0.4,0.4 0 0 1 -0.4,0.4L 22.4 11a 0.4,0.4 0 0 0 -0.4,0.4L 22 11.6a 0.4,0.4 0 0 1 -0.4,0.4L 21.4 12a 0.4,0.4 0 0 1 -0.4,-0.4L 21 11.4a 0.4,0.4 0 0 0 -0.4,-0.4L 20.4 11a 0.4,0.4 0 0 1 -0.4,-0.4L 20 10.4a 0.4,0.4 0 0 1 0.4,-0.4L 20.6 10a 0.4,0.4 0 0 0 0.4,-0.4z M 8 10.4a 0.4,0.4 0 0 1 0.4,-0.4L 8.6 10a 0.4,0.4 0 0 1 0.4,0.4L 9 10.6a 0.4,0.4 0 0 0 0.4,0.4L 9.6 11a 0.4,0.4 0 0 1 0.4,0.4L 10 12.6a 0.4,0.4 0 0 1 -0.4,0.4L 9.4 13a 0.4,0.4 0 0 1 -0.4,-0.4L 9 12.4a 0.4,0.4 0 0 0 -0.4,-0.4L 7.4 12a 0.4,0.4 0 0 1 -0.4,-0.4L 7 11.4a 0.4,0.4 0 0 1 0.4,-0.4L 7.6 11a 0.4,0.4 0 0 0 0.4,-0.4z M 11 10.4a 0.4,0.4 0 0 1 0.4,-0.4L 11.6 10a 0.4,0.4 0 0 1 0.4,0.4L 12 10.6a 0.4,0.4 0 0 1 -0.4,0.4L 11.4 11a 0.4,0.4 0 0 1 -0.4,-0.4z M 4 11.4a 0.4,0.4 0 0 1 0.4,-0.4L 4.6 11a 0.4,0.4 0 0 1 0.4,0.4L 5 11.6a 0.4,0.4 0 0 1 -0.4,0.4L 4.4 12a 0.4,0.4 0 0 1 -0.4,-0.4z M 17 11.4a 0.4,0.4 0 0 1 0.4,-0.4L 17.6 11a 0.4,0.4 0 0 1 0.4,0.4L 18 11.6a 0.4,0.4 0 0 1 -0.4,0.4L 17.4 12a 0.4,0.4 0 0 1 -0.4,-0.4z M 6 12.4a 0.4,0.4 0 0 1 0.4,-0.4L 6.6 12a 0.4,0.4 0 0 1 0.4,0.4L 7 12.6a 0.4,0.4 0 0 1 -0.4,0.4L 6.4 13a 0.4,0.4 0 0 1 -0.4,-0.4z M 11 12.4a 0.4,0.4 0 0 1 0.4,-0.4L 12.6 12a 0.4,0.4 0 0 1 0.4,0.4L 13 12.6a 0.4,0.4 0 0 0 0.4,0.4L 13.6 13a 0.4,0.4 0 0 1 0.4,0.4L 14 13.6a 0.4,0.4 0 0 1 -0.4,0.4L 13.4 14a 0.4,0.4 0 0 0 -0.4,0.4L 13 15.6a 0.4,0.4 0 0 1 -0.4,0.4L 11.4 16a 0.4,0.4 0 0 1 -0.4,-0.4L 11 15.4a 0.4,0.4 0 0 1 0.4,-0.4L 11.6 15a 0.4,0.4 0 0 0 0.4,-0.4L 12 13.4a 0.4,0.4 0 0 0 -0.4,-0.4L 11.4 13a 0.4,0.4 0 0 1 -0.4,-0.4z M 18 12.4a 0.4,0.4 0 0 1 0.4,-0.4L 18.6 12a 0.4,0.4 0 0 1 0.4,0.4L 19 12.6a 0.4,0.4 0 0 0 0.4,0.4L 19.6 13a 0.4,0.4 0 0 1 0.4,0.4L 20 13.6a 0.4,0.4 0 0 1 -0.4,0.4L 18.4 14a 0.4,0.4 0 0 1 -0.4,-0.4z M 24 12.4a 0.4,0.4 0 0 1 0.4,-0.4L 24.6 12a 0.4,0.4 0 0 1 0.4,0.4L 25 14.6a 0.4,0.4 0 0 1 -0.4,0.4L 24.4 15a 0.4,0.4 0 0 1 -0.4,-0.4L 24 14.4a 0.4,0.4 0 0 0 -0.4,-0.4L 23.4 14a 0.4,0.4 0 0 1 -0.4,-0.4L 23 13.4a 0.4,0.4 0 0 1 0.4,-0.4L 23.6 13a 0.4,0.4 0 0 0 0.4,-0.4z M 5 13.4a 0.4,0.4 0 0 1 0.4,-0.4L 5.6 13a 0.4,0.4 0 0 1 0.4,0.4L 6 13.6a 0.4,0.4 0 0 0 0.4,0.4L 6.6 14a 0.4,0.4 0 0 1 0.4,0.4L 7 14.6a 0.4,0.4 0 0 1 -0.4,0.4L 6.4 15a 0.4,0.4 0 0 0 -0.4,0.4L 6 15.6a 0.4,0.4 0 0 0 0.4,0.4L 7.6 16a 0.4,0.4 0 0 1 0.4,0.4L 8 16.6a 0.4,0.4 0 0 1 -0.4,0.4L 4.4 17a 0.4,0.4 0 0 1 -0.4,-0.4L 4 16.4a 0.4,0.4 0 0 0 -0.4,-0.4L 3.4 16a 0.4,0.4 0 0 0 -0.4,0.4L 3 16.6a 0.4,0.4 0 0 1 -0.4,0.4L 0.4 17a 0.4,0.4 0 0 1 -0.4,-0.4L 0 16.4a 0.4,0.4 0 0 1 0.4,-0.4L 1.6 16a 0.4,0.4 0 0 0 0.4,-0.4L 2 15.4a 0.4,0.4 0 0 1 0.4,-0.4L 4.6 15a 0.4,0.4 0 0 0 0.4,-0.4z M 21 14.4a 0.4,0.4 0 0 1 0.4,-0.4L 22.6 14a 0.4,0.4 0 0 1 0.4,0.4L 23 14.6a 0.4,0.4 0 0 1 -0.4,0.4L 22.4 15a 0.4,0.4 0 0 0 -0.4,0.4L 22 15.6a 0.4,0.4 0 0 1 -0.4,0.4L 19.4 16a 0.4,0.4 0 0 1 -0.4,-0.4L 19 15.4a 0.4,0.4 0 0 1 0.4,-0.4L 20.6 15a 0.4,0.4 0 0 0 0.4,-0.4z M 8 15.4a 0.4,0.4 0 0 1 0.4,-0.4L 9.6 15a 0.4,0.4 0 0 1 0.4,0.4L 10 15.6a 0.4,0.4 0 0 0 0.4,0.4L 10.6 16a 0.4,0.4 0 0 1 0.4,0.4L 11 16.6a 0.4,0.4 0 0 1 -0.4,0.4L 9.4 17a 0.4,0.4 0 0 1 -0.4,-0.4L 9 16.4a 0.4,0.4 0 0 0 -0.4,-0.4L 8.4 16a 0.4,0.4 0 0 1 -0.4,-0.4z M 23 16.4a 0.4,0.4 0 0 1 0.4,-0.4L 23.6 16a 0.4,0.4 0 0 1 0.4,0.4L 24 16.6a 0.4,0.4 0 0 1 -0.4,0.4L 23.4 17a 0.4,0.4 0 0 1 -0.4,-0.4z M 8 17.4a 0.4,0.4 0 0 1 0.4,-0.4L 8.6 17a 0.4,0.4 0 0 1 0.4,0.4L 9 17.6a 0.4,0.4 0 0 1 -0.4,0.4L 8.4 18a 0.4,0.4 0 0 1 -0.4,-0.4z M 24 17.4a 0.4,0.4 0 0 1 0.4,-0.4L 24.6 17a 0.4,0.4 0 0 1 0.4,0.4L 25 18.6a 0.4,0.4 0 0 1 -0.4,0.4L 24.4 19a 0.4,0.4 0 0 1 -0.4,-0.4z M 10 18.4a 0.4,0.4 0 0 1 0.4,-0.4L 11.6 18a 0.4,0.4 0 0 1 0.4,0.4L 12 18.6a 0.4,0.4 0 0 1 -0.4,0.4L 10.4 19a 0.4,0.4 0 0 1 -0.4,-0.4z M 8 19.4a 0.4,0.4 0 0 1 0.4,-0.4L 9.6 19a 0.4,0.4 0 0 1 0.4,0.4L 10 20.6a 0.4,0.4 0 0 1 -0.4,0.4L 9.4 21a 0.4,0.4 0 0 1 -0.4,-0.4L 9 20.4a 0.4,0.4 0 0 0 -0.4,-0.4L 8.4 20a 0.4,0.4 0 0 1 -0.4,-0.4z M 13 19.4a 0.4,0.4 0 0 1 0.4,-0.4L 13.6 19a 0.4,0.4 0 0 1 0.4,0.4L 14 20.6a 0.4,0.4 0 0 1 -0.4,0.4L 13.4 21a 0.4,0.4 0 0 0 -0.4,0.4L 13 21.6a 0.4,0.4 0 0 0 0.4,0.4L 14.6 22a 0.4,0.4 0 0 1 0.4,0.4L 15 22.6a 0.4,0.4 0 0 0 0.4,0.4L 15.6 23a 0.4,0.4 0 0 0 0.4,-0.4L 16 22.4a 0.4,0.4 0 0 1 0.4,-0.4L 16.6 22a 0.4,0.4 0 0 0 0.4,-0.4L 17 21.4a 0.4,0.4 0 0 1 0.4,-0.4L 17.6 21a 0.4,0.4 0 0 1 0.4,0.4L 18 23.6a 0.4,0.4 0 0 1 -0.4,0.4L 17.4 24a 0.4,0.4 0 0 0 -0.4,0.4L 17 24.6a 0.4,0.4 0 0 1 -0.4,0.4L 16.4 25a 0.4,0.4 0 0 1 -0.4,-0.4L 16 24.4a 0.4,0.4 0 0 0 -0.4,-0.4L 15.4 24a 0.4,0.4 0 0 0 -0.4,0.4L 15 24.6a 0.4,0.4 0 0 1 -0.4,0.4L 13.4 25a 0.4,0.4 0 0 1 -0.4,-0.4L 13 24.4a 0.4,0.4 0 0 1 0.4,-0.4L 13.6 24a 0.4,0.4 0 0 0 0.4,-0.4L 14 23.4a 0.4,0.4 0 0 0 -0.4,-0.4L 13.4 23a 0.4,0.4 0 0 0 -0.4,0.4L 13 23.6a 0.4,0.4 0 0 1 -0.4,0.4L 11.4 24a 0.4,0.4 0 0 1 -0.4,-0.4L 11 23.4a 0.4,0.4 0 0 1 0.4,-0.4L 11.6 23a 0.4,0.4 0 0 0 0.4,-0.4L 12 21.4a 0.4,0.4 0 0 0 -0.4,-0.4L 11.4 21a 0.4,0.4 0 0 1 -0.4,-0.4L 11 20.4a 0.4,0.4 0 0 1 0.4,-0.4L 12.6 20a 0.4,0.4 0 0 0 0.4,-0.4z M 23 19.4a 0.4,0.4 0 0 1 0.4,-0.4L 23.6 19a 0.4,0.4 0 0 1 0.4,0.4L 24 19.6a 0.4,0.4 0 0 1 -0.4,0.4L 23.4 20a 0.4,0.4 0 0 1 -0.4,-0.4z M 15 20.4a 0.4,0.4 0 0 1 0.4,-0.4L 15.6 20a 0.4,0.4 0 0 1 0.4,0.4L 16 20.6a 0.4,0.4 0 0 1 -0.4,0.4L 15.4 21a 0.4,0.4 0 0 1 -0.4,-0.4z M 24 20.4a 0.4,0.4 0 0 1 0.4,-0.4L 24.6 20a 0.4,0.4 0 0 1 0.4,0.4L 25 20.6a 0.4,0.4 0 0 1 -0.4,0.4L 24.4 21a 0.4,0.4 0 0 1 -0.4,-0.4z M 20 21.4a 0.4,0.4 0 0 1 0.4,-0.4L 20.6 21a 0.4,0.4 0 0 1 0.4,0.4L 21 21.6a 0.4,0.4 0 0 0 0.4,0.4L 21.6 22a 0.4,0.4 0 0 1 0.4,0.4L 22 22.6a 0.4,0.4 0 0 1 -0.4,0.4L 21.4 23a 0.4,0.4 0 0 0 -0.4,0.4L 21 23.6a 0.4,0.4 0 0 1 -0.4,0.4L 19.4 24a 0.4,0.4 0 0 1 -0.4,-0.4L 19 22.4a 0.4,0.4 0 0 1 0.4,-0.4L 19.6 22a 0.4,0.4 0 0 0 0.4,-0.4z M 22 21.4a 0.4,0.4 0 0 1 0.4,-0.4L 23.6 21a 0.4,0.4 0 0 1 0.4,0.4L 24 21.6a 0.4,0.4 0 0 0 0.4,0.4L 24.6 22a 0.4,0.4 0 0 1 0.4,0.4L 25 22.6a 0.4,0.4 0 0 1 -0.4,0.4L 23.4 23a 0.4,0.4 0 0 1 -0.4,-0.4L 23 22.4a 0.4,0.4 0 0 0 -0.4,-0.4L 22.4 22a 0.4,0.4 0 0 1 -0.4,-0.4z M 8 22.4a 0.4,0.4 0 0 1 0.4,-0.4L 10.6 22a 0.4,0.4 0 0 1 0.4,0.4L 11 22.6a 0.4,0.4 0 0 1 -0.4,0.4L 9.4 23a 0.4,0.4 0 0 0 -0.4,0.4L 9 23.6a 0.4,0.4 0 0 0 0.4,0.4L 10.6 24a 0.4,0.4 0 0 1 0.4,0.4L 11 24.6a 0.4,0.4 0 0 1 -0.4,0.4L 8.4 25a 0.4,0.4 0 0 1 -0.4,-0.4z M 18 24.4a 0.4,0.4 0 0 1 0.4,-0.4L 18.6 24a 0.4,0.4 0 0 1 0.4,0.4L 19 24.6a 0.4,0.4 0 0 1 -0.4,0.4L 18.4 25a 0.4,0.4 0 0 1 -0.4,-0.4z M 21 24.4a 0.4,0.4 0 0 1 0.4,-0.4L 21.6 24a 0.4,0.4 0 0 1 0.4,0.4L 22 24.6a 0.4,0.4 0 0 1 -0.4,0.4L 21.4 25a 0.4,0.4 0 0 1 -0.4,-0.4z M 24 24.4a 0.4,0.4 0 0 1 0.4,-0.4L 24.6 24a 0.4,0.4 0 0 1 0.4,0.4L 25 24.6a 0.4,0.4 0 0 1 -0.4,0.4L 24.4 25a 0.4,0.4 0 0 1 -0.4,-0.4z"></path><path id="qr squares" d="M1.05,0h4.9a1.05,1.05 0 0 1 1.05,1.05v4.9a1.05,1.05 0 0 1 -1.05,1.05h-4.9a1.05,1.05 0 0 1 -1.05,-1.05v-4.9a1.05,1.05 0 0 1 1.05,-1.05zM1.75,1h3.5a0.75,0.75 0 0 1 0.75,0.75v3.5a0.75,0.75 0 0 1 -0.75,0.75h-3.5a0.75,0.75 0 0 1 -0.75,-0.75v-3.5a0.75,0.75 0 0 1 0.75,-0.75zM2.45,2h2.1a0.44999999999999996,0.44999999999999996 0 0 1 0.44999999999999996,0.44999999999999996v2.1a0.44999999999999996,0.44999999999999996 0 0 1 -0.44999999999999996,0.44999999999999996h-2.1a0.44999999999999996,0.44999999999999996 0 0 1 -0.44999999999999996,-0.44999999999999996v-2.1a0.44999999999999996,0.44999999999999996 0 0 1 0.44999999999999996,-0.44999999999999996z M19.05,0h4.9a1.05,1.05 0 0 1 1.05,1.05v4.9a1.05,1.05 0 0 1 -1.05,1.05h-4.9a1.05,1.05 0 0 1 -1.05,-1.05v-4.9a1.05,1.05 0 0 1 1.05,-1.05zM19.75,1h3.5a0.75,0.75 0 0 1 0.75,0.75v3.5a0.75,0.75 0 0 1 -0.75,0.75h-3.5a0.75,0.75 0 0 1 -0.75,-0.75v-3.5a0.75,0.75 0 0 1 0.75,-0.75zM20.45,2h2.1a0.44999999999999996,0.44999999999999996 0 0 1 0.44999999999999996,0.44999999999999996v2.1a0.44999999999999996,0.44999999999999996 0 0 1 -0.44999999999999996,0.44999999999999996h-2.1a0.44999999999999996,0.44999999999999996 0 0 1 -0.44999999999999996,-0.44999999999999996v-2.1a0.44999999999999996,0.44999999999999996 0 0 1 0.44999999999999996,-0.44999999999999996z M1.05,18h4.9a1.05,1.05 0 0 1 1.05,1.05v4.9a1.05,1.05 0 0 1 -1.05,1.05h-4.9a1.05,1.05 0 0 1 -1.05,-1.05v-4.9a1.05,1.05 0 0 1 1.05,-1.05zM1.75,19h3.5a0.75,0.75 0 0 1 0.75,0.75v3.5a0.75,0.75 0 0 1 -0.75,0.75h-3.5a0.75,0.75 0 0 1 -0.75,-0.75v-3.5a0.75,0.75 0 0 1 0.75,-0.75zM2.45,20h2.1a0.44999999999999996,0.44999999999999996 0 0 1 0.44999999999999996,0.44999999999999996v2.1a0.44999999999999996,0.44999999999999996 0 0 1 -0.44999999999999996,0.44999999999999996h-2.1a0.44999999999999996,0.44999999999999996 0 0 1 -0.44999999999999996,-0.44999999999999996v-2.1a0.44999999999999996,0.44999999999999996 0 0 1 0.44999999999999996,-0.44999999999999996zM16.75,16h3.5a0.75,0.75 0 0 1 0.75,0.75v3.5a0.75,0.75 0 0 1 -0.75,0.75h-3.5a0.75,0.75 0 0 1 -0.75,-0.75v-3.5a0.75,0.75 0 0 1 0.75,-0.75zM17.45,17h2.1a0.44999999999999996,0.44999999999999996 0 0 1 0.44999999999999996,0.44999999999999996v2.1a0.44999999999999996,0.44999999999999996 0 0 1 -0.44999999999999996,0.44999999999999996h-2.1a0.44999999999999996,0.44999999999999996 0 0 1 -0.44999999999999996,-0.44999999999999996v-2.1a0.44999999999999996,0.44999999999999996 0 0 1 0.44999999999999996,-0.44999999999999996zM18.15,18h0.7a0.15,0.15 0 0 1 0.15,0.15v0.7a0.15,0.15 0 0 1 -0.15,0.15h-0.7a0.15,0.15 0 0 1 -0.15,-0.15v-0.7a0.15,0.15 0 0 1 0.15,-0.15z" fill-rule="evenodd" fill-opacity="1" fill="#fccebe"></path></svg>
